/* XPM */
static char *f98952db48174251f9a0bec9494c6ab2yyLdzAb7vnyAKXok[] = {
/* columns rows colors chars-per-pixel */
"32 32 4 1 ",
"  c #385A33",
". c #4D4C19",
"X c #554F14",
"o c #645C14",
/* pixels */
"......ooooXX....oooo......XX....",
"......ooooXX....oooo......XX....",
"..oo..ooXXXX..XXXX......  XX  ..",
"..oo..ooXXXX..XXXX......  XX  ..",
"..oooo..XXXX..XX....oooo....  ..",
"..oooo..XXXX..XX....oooo....  ..",
"  XXXX..  XX....  ..ooXXXX..oooo",
"  XXXX..  XX....  ..ooXXXX..oooo",
"..  XX..  XX  ......  XXXX  XXXX",
"..  XX..  XX  ......  XXXX  XXXX",
"................oooo  ....  ..XX",
"................oooo  ....  ..XX",
"..oooooo......XXXXoo........  ..",
"..oooooo......XXXXoo........  ..",
"....ooXXXX..  XXXX  ..oo  oooo..",
"....ooXXXX..  XXXX  ..oo  oooo..",
"....  XXXX..  XX  ..ooXX  XXXX..",
"....  XXXX..  XX  ..ooXX  XXXX..",
"oooo..  XX..  ..  ..XX  ..  XX..",
"oooo..  XX..  ..  ..XX  ..  XX..",
"ooXXXX....  oooo..........  ....",
"ooXXXX....  oooo..........  ....",
"  XXXX  ..  ooXXXX....oooooo....",
"  XXXX  ..  ooXXXX....oooooo....",
"..  ..  ......XXXX..XXXXoo......",
"..  ..  ......XXXX..XXXXoo......",
"oo......oooo......  XXXX  ..oo..",
"oo......oooo......  XXXX  ..oo..",
"XXoo....  XXXX  ..  XX  ..XXoo..",
"XXoo....  XXXX  ..  XX  ..XXoo..",
"..XX  ....  XX  ..  ......XXXX  ",
"..XX  ....  XX  ..  ......XXXX  "
};
