/* XPM */
static char *b340114094da473a99c60da9a478b8bdtp0vaks4m45ZxJyC[] = {
/* columns rows colors chars-per-pixel */
"32 32 208 2 ",
"   c None",
".  c #8E7A5F",
"X  c #8F7A5F",
"o  c #8F7B5F",
"O  c #927B5F",
"+  c #8E7A61",
"@  c #8F7A61",
"#  c #8F7B61",
"$  c #917B60",
"%  c #917A61",
"&  c #917B61",
"*  c #927B60",
"=  c #927A61",
"-  c #937A61",
";  c #937B61",
":  c #947B60",
">  c #947B61",
",  c #957B61",
"<  c #967B60",
"1  c #967A61",
"2  c #977A61",
"3  c #967B61",
"4  c #917D60",
"5  c #907C61",
"6  c #917D61",
"7  c #937D60",
"8  c #927C61",
"9  c #937C61",
"0  c #927D61",
"q  c #937D61",
"w  c #917F61",
"e  c #927E61",
"r  c #937E61",
"t  c #927F61",
"y  c #937D62",
"u  c #937E62",
"i  c #947C61",
"p  c #957C61",
"a  c #947D61",
"s  c #957D61",
"d  c #967C61",
"f  c #977C61",
"g  c #967D61",
"h  c #977D61",
"j  c #947E61",
"k  c #957E61",
"l  c #967E61",
"z  c #977E61",
"x  c #967F61",
"c  c #947D62",
"v  c #957D62",
"b  c #967D62",
"n  c #977D62",
"m  c #957E62",
"M  c #957F62",
"N  c #967E62",
"B  c #977E62",
"V  c #967F62",
"C  c #977F62",
"Z  c #987A61",
"A  c #997A61",
"S  c #987B61",
"D  c #9A7B61",
"F  c #9B7B61",
"G  c #987C60",
"H  c #987C61",
"J  c #997C61",
"K  c #987D61",
"L  c #997D61",
"P  c #9A7D61",
"I  c #987E61",
"U  c #987C62",
"Y  c #997C62",
"T  c #987D62",
"R  c #997D62",
"E  c #9A7C62",
"W  c #9B7C62",
"Q  c #9A7D62",
"!  c #9B7D62",
"~  c #987E62",
"^  c #997E62",
"/  c #987F62",
"(  c #997F62",
")  c #9A7E62",
"_  c #9B7E62",
"`  c #9A7F62",
"'  c #9B7F62",
"]  c #9B7E63",
"[  c #9A7F63",
"{  c #9B7F63",
"}  c #9C7C62",
"|  c #9C7D62",
" . c #9D7D62",
".. c #9C7D63",
"X. c #9C7E62",
"o. c #9D7E62",
"O. c #9C7F62",
"+. c #9D7E63",
"@. c #9C7F63",
"#. c #958061",
"$. c #948062",
"%. c #958062",
"&. c #958162",
"*. c #968062",
"=. c #978062",
"-. c #968162",
";. c #978162",
":. c #978163",
">. c #968262",
",. c #978263",
"<. c #988062",
"1. c #998062",
"2. c #988162",
"3. c #998162",
"4. c #988063",
"5. c #998063",
"6. c #988163",
"7. c #998163",
"8. c #9A8062",
"9. c #9A8162",
"0. c #9B8162",
"q. c #9A8063",
"w. c #9B8063",
"e. c #9A8163",
"r. c #9B8163",
"t. c #988262",
"y. c #998262",
"u. c #998362",
"i. c #988263",
"p. c #998263",
"a. c #988363",
"s. c #998363",
"d. c #9A8262",
"f. c #9B8262",
"g. c #9A8362",
"h. c #9A8263",
"j. c #9B8263",
"k. c #9A8363",
"l. c #9B8363",
"z. c #9C8062",
"x. c #9D8062",
"c. c #9C8063",
"v. c #9D8063",
"b. c #9C8163",
"n. c #9D8163",
"m. c #9E8063",
"M. c #9E8163",
"N. c #9D8262",
"B. c #9C8263",
"V. c #9D8263",
"C. c #9C8363",
"Z. c #9D8363",
"A. c #9E8263",
"S. c #9E8363",
"D. c #9F8363",
"F. c #998462",
"G. c #9B8462",
"H. c #9A8463",
"J. c #9B8463",
"K. c #9B8563",
"L. c #9C8463",
"P. c #9D8463",
"I. c #9C8563",
"U. c #9C8663",
"Y. c #998364",
"T. c #9A8364",
"R. c #9B8364",
"E. c #9D8064",
"W. c #9D8164",
"Q. c #9C8264",
"!. c #9C8364",
"~. c #9D8364",
"^. c #9E8264",
"/. c #9E8364",
"(. c #9F8364",
"). c #9A8464",
"_. c #9B8464",
"`. c #9B8564",
"'. c #9C8464",
"]. c #9D8464",
"[. c #9C8564",
"{. c #9D8564",
"}. c #9E8464",
"|. c #9F8464",
" X c #9E8564",
".X c #9F8564",
"XX c #9E8565",
"oX c #9C8664",
"OX c #9D8664",
"+X c #9C8665",
"@X c #9D8765",
"#X c #9E8664",
"$X c #9F8664",
"%X c #9E8764",
"&X c #9F8764",
"*X c #9E8665",
"=X c #9F8665",
"-X c #9E8765",
";X c #9F8765",
":X c #9F8865",
">X c #A08564",
",X c #A08764",
"<X c #A08765",
"1X c #A08964",
"2X c #A08865",
"3X c #A18865",
"4X c #A18965",
"5X c #A08966",
/* pixels */
"    w w w C w w w w w w w w w w & & & & & & o o @ @ & w w w     ",
"  %.%.%.%.%.%.%.%.%.%.%.%.%.%.%.C C C : : w & & & & w w %.%.%.  ",
"s.s.Y.s.s.Y.s.s.s.s.s.s.s.s.s.s.s.C C C C C C w w w C %.s.s.s.J.",
"I.I._.I.[.[.[.[.[.[.[._.Y._._.Y.Y.s.s.s.s./ C C C C s.s.J._.I.I.",
"_.I.[.[.[.[.[.[.[.[.[.[.[.[.[.J.s.s.s.s.s./ / C C %.%.s._.I._.[.",
"s.s.Y.J.Y._._.I._.J.J.J.J.J.s.s.s.s.s.s./ / C C C C %.s.s.Y.s.J.",
"s.s.s.s.s.s.s.s.s.s.s.s.s.s.s.s.s.s./ / C C C C C C C %./ %.s.s.",
"/ s.C / s./ / / C %.%.%.s.s.s.s.s./ / C C C C C C C C C / C C C ",
"/ / / / / / / / C C %.%.s.s.s.s.s.s.s./ / / / / / / E E / : C : ",
"C.C.O.O.C.O./ / C C %.s.J.[.[.[.^.C.C.C.C.C.C.C.O./ O.E / E : : ",
"^.C.C.^.C.C./ / / C s.s.[.[.[.[.[.>X[.^.[.^.C.C.C.O.O.O.O./ / : ",
">X[.^.>X^.C.O./ / C %.s.[.[.[.[.[.[.[.[.>X[.[.>X^.^.C.O.O./ / / ",
"[.[.C.^.C.C./ / C C C s.s.[.[.[.[.[.[.[.[.[.[.[.C.^.C.C.s./ / C ",
"J.C.s.s.s.s./ C C C C C s.s.s.C.s.s.s.s.Y.Y.s.s.s.s.s.s.s.C %.C ",
"s.s.s.s.s.s.C C C C C C C %.s.s.s.s.s.s.s.s.s.s.%.%.%.s.s.%.%.C ",
"s.s.s.s.s.s.%.C C C C C C C / s./ / / / / / C C C C %.%.s.%.s.s.",
"_.C._._._.I.s.s.s.s.s.s.s.s.s./ s./ / / / / C C C C %.s.s.s.s.J.",
"[.[.[.[.[.[.[.[.[.^.^.C.C.C.C.C.C.C.O./ / E E C C C s.J.[.[.[.[.",
">X>X:X2X2X2X>X[.[.[.[.[.>X[.[.^.^.C.C.C.O./ / E C C s.[.[.[.>X2X",
">X>X:X2X2X2X2X2X>X[.[.[.[.>X[.[.>X^.C.C.O.O./ / C C s.[.[.[.2X2X",
"[.[.[.[.[.:X[.[.[.[.[.[.[.[.[.[.^.C.C.C./ / / C C C s.s.[.[.[.[.",
"J.C._.[.[.[.[._._.J.s.s.s.s.s.s.s.s.s./ / / C C C C %.s.s.J.J._.",
"s.s.s.s.s.s.s.s.s.%.%.%.s.s.s.s./ s./ / C C C C C C C %.s.s.s.s.",
"s.s.s.s.s.s.s.C C C C C C C s./ / / / / C C C C C C C C / C C C ",
"s.s.s.s.s./ / / C C C %.s.s.s.s.s./ / / / / / / / / / E / C : : ",
"[.C.C.C.C.O./ / C C C s.s.s.C.C.C.C.C.C.C.C.C.O.O.O.E E / E : : ",
"[.[.[.[.^.C.O./ / C s.s.I.[.[.[.[.[.[.[.[.^.C.C.C.O.O.O.O.E E : ",
">X[.[.[.C.^.O./ / C %.s.[.[.[.[.[.[.[.[.[.[.[.[.C.C.@.O.O./ / : ",
"[.[.[.I.^.C./ / C C C s.s.Y.[.[.[.[.[.[.[.[.[.^.^.^.C./ / / E : ",
"J.s.s.s.s.s.C C C w w C %.s.s.s.s.s.s.s.s.s.s.s.s./ s./ / C : & ",
"  s.%.%.C C C w & w & w w %.%.%.%.%.%.%.%.%.%.%.C C C C C & &   ",
"    C w w w & o o o o @ & w w w C C C C w w w w w w w & O o     "
};
