/* XPM */
static char *_b85425392f94fe7e9b57f97fab0688cZUilHF910RI24VlU[] = {
/* columns rows colors chars-per-pixel */
"32 32 12 1 ",
"  c #4C4C4C",
". c #504F4C",
"X c #52504C",
"o c #615E4D",
"O c #685E4D",
"+ c #68614D",
"@ c #68644D",
"# c #AD9C50",
"$ c #B19D50",
"% c #B1A950",
"& c #B1A854",
"* c #B2B251",
/* pixels */
"################################",
"#####. o########################",
"***@@@X  *********XX+*&&%%******",
"***@      *******X   X&&%%******",
"***X  X  @******@X    @*##******",
"***@ @   X******       *##******",
"####X   X%%######     ####%%%%%#",
"####%%o%%%%######     ####%%%%%#",
"****&&&$$%%*******X O&****&&$$$%",
"****&&&$$%%*********&&****&&$$$%",
"*******&&%%*****************&&&%",
"*   ***&&%%*****************&&&%",
"     ****##********************#",
"     ****##***********@@ ******#",
"      ##############%     ######",
"      ##############%     .#####",
"      **************       *****",
"     X ************        *****",
"        ***********        *****",
"X        XX***@XX         ******",
"*X           X            ******",
"*X                      .#******",
"##.                    o##%%%%%%",
"###o                   ###%%%%%%",
"****+X              .&**&&&&$$$%",
"*******..X        X+&&**&&&&$$$%",
"*******&&%o@  X@X***********&&&%",
"*******&&%%*****************&&&%",
"*********##********************#",
"*********##********************#",
"################################",
"################################"
};
