/* XPM */
static char *_6a142e503d84838f7607c79a259c310cDgPZ4hUXhwlpwQg[] = {
/* columns rows colors chars-per-pixel */
"32 32 165 2 ",
"   c None",
".  c #9E872A",
"X  c #9F892B",
"o  c #A2872B",
"O  c #A48C2B",
"+  c #AB8E2B",
"@  c #B08E2C",
"#  c #A4902B",
"$  c #A5902B",
"%  c #A6902B",
"&  c #A7902B",
"*  c #A6912B",
"=  c #A7912B",
"-  c #A7932A",
";  c #A7922B",
":  c #A4902C",
">  c #A7902C",
",  c #A7912C",
"<  c #A8912A",
"1  c #A8902B",
"2  c #A9902B",
"3  c #A8912B",
"4  c #A9912B",
"5  c #AA902B",
"6  c #AB902B",
"7  c #AA912B",
"8  c #AB912B",
"9  c #A9922A",
"0  c #A8922B",
"q  c #A9922B",
"w  c #A9932B",
"e  c #AA932A",
"r  c #AA922B",
"t  c #AB922B",
"y  c #AA932B",
"u  c #AB932B",
"i  c #AC902B",
"p  c #AD902B",
"a  c #AC912B",
"s  c #AD912B",
"d  c #AE902B",
"f  c #AE912B",
"g  c #AF912B",
"h  c #AC922B",
"j  c #AD922B",
"k  c #AC932B",
"l  c #AD932B",
"z  c #AE922B",
"x  c #AF922B",
"c  c #AE932B",
"v  c #AF932B",
"b  c #AA952A",
"n  c #AA942B",
"m  c #AB942B",
"M  c #AB952B",
"N  c #AB962B",
"B  c #AC942B",
"V  c #AD942B",
"C  c #AC952B",
"Z  c #AD952B",
"A  c #AF952A",
"S  c #AE942B",
"D  c #AF942B",
"F  c #AE952B",
"G  c #AF952B",
"H  c #AD962B",
"J  c #AE962B",
"K  c #AF962B",
"L  c #AE972B",
"P  c #AF972B",
"I  c #A8902C",
"U  c #A9902C",
"Y  c #A8912C",
"T  c #A9912C",
"R  c #AB902C",
"E  c #AA912C",
"W  c #AB912C",
"Q  c #A9922C",
"!  c #A9932C",
"~  c #AA922C",
"^  c #AB922C",
"/  c #AA932C",
"(  c #AB932C",
")  c #AC902C",
"_  c #AC912C",
"`  c #AD912C",
"'  c #AE902C",
"]  c #AF902C",
"[  c #AE912C",
"{  c #AF912C",
"}  c #AC922C",
"|  c #AD922C",
" . c #AC932C",
".. c #AD932C",
"X. c #AE922C",
"o. c #AF922C",
"O. c #AE932C",
"+. c #AF932C",
"@. c #A9942C",
"#. c #AA942C",
"$. c #AB942C",
"%. c #AB952C",
"&. c #AC942C",
"*. c #AD942C",
"=. c #AC952C",
"-. c #AD952C",
";. c #AE942C",
":. c #AF942C",
">. c #AE952C",
",. c #AF952C",
"<. c #AD962C",
"1. c #AE962C",
"2. c #AF962C",
"3. c #AE972C",
"4. c #AF972C",
"5. c #AF992B",
"6. c #AF982C",
"7. c #B0902B",
"8. c #B0912B",
"9. c #B0922B",
"0. c #B1922B",
"q. c #B0932B",
"w. c #B1932B",
"e. c #B0942B",
"r. c #B1942B",
"t. c #B0952B",
"y. c #B1952B",
"u. c #B0962B",
"i. c #B1962B",
"p. c #B0972B",
"a. c #B1972B",
"s. c #B0902C",
"d. c #B0912C",
"f. c #B1912C",
"g. c #B0922C",
"h. c #B1922C",
"j. c #B0932C",
"k. c #B1932C",
"l. c #B0942C",
"z. c #B1942C",
"x. c #B0952C",
"c. c #B1952C",
"v. c #B2942C",
"b. c #B2952C",
"n. c #B0962C",
"m. c #B1962C",
"M. c #B0972C",
"N. c #B1972C",
"B. c #B0982B",
"V. c #B1982B",
"C. c #B0992B",
"Z. c #B1992B",
"A. c #B2992B",
"S. c #B09A2B",
"D. c #B19A2B",
"F. c #B29A2B",
"G. c #B29B2B",
"H. c #B0982C",
"J. c #B1982C",
"K. c #B0992C",
"L. c #B1992C",
"P. c #B2992C",
"I. c #B09A2C",
"U. c #B29A2C",
"Y. c #B29B2C",
/* pixels */
"        * : * O O O O O O O O O O O O O O o o . . O X O         ",
"    * 0 * * * * * * * * * * * * O O O O O O O O O O O O O O     ",
"  0 ! #.b #.0 ! #.#.#.#.#.! ! ! ! ! ! + O O O O O O O * * : *   ",
"! b 0 #.*.B B b b b b b b b b b 0 0 0 + + O O O O O O O ! 0 0 ! ",
"b B B *.*.*.B *.#.#.#.b b b b b 0 0 0 0 0 + O O O O O ! ! 0 0 0 ",
"*.B *.B B *.B O.b b b b b b b B b 0 0 0 0 + + O O O + 0 0 ! 0 ! ",
"j O.j *.j O.B O.O.O.O.*.*.*.*.*.*.O.O.O.O.+ + + + + + + + + + + ",
"O.j O.j j O.O.0 0 0 0 b b B B B B B j j j j + + + + + + + + + + ",
"*.j O.j O.j O.O.! ! O.j B B B B B B B j j j j j + + + + + + + + ",
"M.t.M.g.g.j O.+ + ! O.! *.*.*.M.M.M.M.M.M.g.g.j 8.g.+ + + + + + ",
"M.t.M.M.g.8.O.+ + 0 0 ! *.*.M.M.M.M.M.M.M.M.M.8.8.g.@ @ + + + + ",
"M.t.M.g.g.8.O.j + 0 0 ! *.*.*.M.M.M.M.M.M.M.M.M.8.g.8.g.+ + + + ",
"M.t.M.M.M.j O.j + 0 0 O.*.*.*.M.M.M.M.M.M.M.M.M.8.g.j g.O.+ + + ",
"M.t.*.B M.j O.0 0 0 0 0 0 B B B t.t.t.t.8.B j j j O.j O.j ! + + ",
"*.B *.B t.B O.0 0 0 0 0 0 j B B B t.B j j j j j j O.j O.j ! 0 ! ",
"*.B *.B B B *.B j 0 j j j B B B B j j j j j j 0 0 ! 0 ! B *.j ! ",
"K.C.6.5.K.B M.B B B B B B B t.B t.j j j j + + + + ! 0 ! B *.B *.",
"K.C.K.K.K.C.K.C.B t.B *.M.M.M.M.M.g.g.g.O.+ + + + ! 0 #.B *.B *.",
"K.C.Y.Y.K.C.K.C.C.C.t.M.M.M.M.M.M.M.g.g.g.+ + + + ! 0 *.B *.B K.",
"K.C.Y.G.K.C.K.C.C.C.K.K.M.M.M.M.M.M.g.g.g.+ + + + ! 0 *.B *.t.K.",
"K.C.K.C.K.C.K.C.C.C.M.M.M.M.M.M.M.M.g.O.O.+ + + + + 0 ! j *.B M.",
"M.C.K.C.K.C.M.t.B B B B B B B B B j j j j + + + + + 0 ! j O.j *.",
"*.B *.B M.t.M.B B B B B B B B B B j j j j + + + + + + ! j O.j O.",
"*.B *.t.M.B O.j 0 j j j j B B B j j j j j + + + + + + + + + + + ",
"*.t.M.t.O.O.O.j 0 0 0 0 B B B B B B j j j j O.+ + + + + + + + + ",
"t.M.t.M.t.O.j O.! ! ! O.O.*.*.M.M.M.M.M.g.g.g.g.O.g.+ + + + + + ",
"M.t.M.t.8.O.O.+ + + 0 0 b B B t.t.t.t.t.t.t.8.8.O.g.@ + + + O + ",
"t.C.t.M.M.j j + + + + ! ! *.*.M.M.M.M.M.M.M.M.g.g.8.@ @ + + + O ",
"*.B *.*.O.j + + + + O * 0 B B B B t.B B B B t.8.j O.+ + + + O o ",
"  j O.O.j ! + O O O O O + ! #.#.*.*.*.*.*.*.O.O.O.+ + + + + O   ",
"    0 0 0 O O O O O O O O * * 0 0 0 0 0 0 0 0 0 + + + + O O     ",
"        O O O O O O O O O O O O O O O O O O O O O O O O         "
};
