/* XPM */
static char *a83107371d15418fdf71a55cd24054b21h6Nr4rJtlN13eIi[] = {
/* columns rows colors chars-per-pixel */
"32 32 8 1 ",
"  c #AD8226",
". c #B98526",
"X c #D8AB26",
"o c #D8AF26",
"O c #D8B526",
"+ c #D8C526",
"@ c #D8CD2B",
"# c #D8D826",
/* pixels */
"                                ",
"                                ",
"XXXXXXXXXXXXXXXXXOOOOO@@..XXXXXX",
"XXXXXXXXXXXXXXXXXOOOOO@@..XXXXXX",
"XXXXXXXXXXXXXXXXXXXXXXXX  XXXXXX",
"XXXXXXXXXXXXXXXXXXXXXXXX  XXXXXX",
"    .......               ..... ",
"    .......               ..... ",
"OO++@@@##..XXXXOOOOO@@++++@@###.",
"OO++@@@##..XXXXOOOOO@@++++@@###.",
"XXXXOOO@@..XXXXXXXXXXXXXOOOO@@@.",
"XXXXOOO@@..XXXXXXXXXXXXXOOOO@@@.",
"XXXXXXXOO  XXXXXXXXXXXXXXXXXXXX ",
"XXXXXXXOO  XXXXXXXXXXXXXXXXXXXX ",
"                    ....        ",
"                    ....        ",
"XXXXXXXXXOOOO++oo+++@@##..XXXXXX",
"XXXXXXXXXOOOO++oo+++@@##..XXXXXX",
"XXXXXXXXXXXXXXXXXOOOOO@@  XXXXXX",
"XXXXXXXXXXXXXXXXXOOOOO@@  XXXXXX",
"XXXXXXXXXXXXXXXXXXXXXXXX  XXXXXX",
"XXXXXXXXXXXXXXXXXXXXXXXX  XXXXXX",
"    .....                 ......",
"    .....                 ......",
"XX++OOO##..XXOOOO+++@@++@@@@###.",
"XX++OOO##..XXOOOO+++@@++@@@@###.",
"XXXXOOO@@..XXXXXXXXXXXXXOOOO@@@.",
"XXXXOOO@@..XXXXXXXXXXXXXOOOO@@@.",
"XXXXXXXOO  XXXXXXXXXXXXXXXXXOOO ",
"XXXXXXXOO  XXXXXXXXXXXXXXXXXOOO ",
"                                ",
"                                "
};
